<?xml version="1.0" encoding="iso-8859-1"?>
<!-- Generator: Adobe Illustrator 19.0.0, SVG Export Plug-In . SVG Version: 6.00 Build 0)  -->
<svg version="1.1" id="Layer_1" xmlns="http://www.w3.org/2000/svg" xmlns:xlink="http://www.w3.org/1999/xlink" x="0px" y="0px"
	 viewBox="0 0 512.001 512.001" style="enable-background:new 0 0 512.001 512.001;" xml:space="preserve">
<path style="fill:#F1F0EF;" d="M470.256,137.813c-1.516-1.619-3.634-2.539-5.853-2.539H207.908c-2.218,0-4.337,0.92-5.853,2.539
	c-1.516,1.62-2.292,3.796-2.145,6.01l24.046,360.696c0.281,4.21,3.778,7.482,7.997,7.482h208.402c4.22,0,7.717-3.272,7.997-7.482
	l24.046-360.696C472.548,141.609,471.772,139.433,470.256,137.813z"/>
<path style="fill:#E4E2DE;" d="M248.003,504.518l-23.615-354.216h-24.046l23.615,354.216c0.281,4.21,3.778,7.482,7.997,7.482H256
	C251.78,512,248.283,508.728,248.003,504.518z"/>
<g>
	<path style="fill:#FF524A;" d="M223.957,504.518c0.281,4.21,3.778,7.482,7.997,7.482h208.402c4.22,0,7.717-3.272,7.997-7.482
		l3.776-56.641H220.18L223.957,504.518z"/>
	<path style="fill:#FF524A;" d="M472.401,143.822c0.147-2.213-0.629-4.389-2.145-6.01c-1.516-1.619-3.634-2.539-5.853-2.539H207.908
		c-2.218,0-4.337,0.92-5.853,2.539c-1.516,1.62-2.292,3.796-2.145,6.01l4.774,71.606h262.943L472.401,143.822z"/>
</g>
<circle style="fill:#D6D3CE;" cx="344.174" cy="335.657" r="72.139"/>
<g>
	<path style="fill:#FF402A;" d="M248.003,504.518l-3.776-56.641H220.18l3.776,56.641c0.281,4.21,3.778,7.482,7.997,7.482H256
		C251.78,512,248.283,508.728,248.003,504.518z"/>
	<path style="fill:#FF402A;" d="M470.256,137.813c-1.516-1.619-3.634-2.539-5.853-2.539H231.954h-24.046
		c-2.218,0-4.337,0.92-5.853,2.539c-1.516,1.62-2.292,3.796-2.145,6.01l4.774,71.606h24.046l-3.273-49.095h245.443l1.501-22.511
		C472.548,141.609,471.772,139.433,470.256,137.813z"/>
</g>
<path style="fill:#FFD761;" d="M451.957,16.363l-88.167-16.03c-10.311-1.876-20.163,4.33-22.92,14.443l-24.046,88.17
	c-2.907,10.66,3.401,21.697,14.062,24.605c1.725,0.47,3.502,0.708,5.278,0.708c9.006,0,16.954-6.074,19.325-14.77l19.211-70.439
	l70.088,12.744c4.298,0.775,8.539-2.157,9.32-6.452l4.301-23.659C459.2,21.328,456.312,17.155,451.957,16.363z"/>
<path style="fill:#F1F0EF;" d="M488.449,95.195H183.861c-4.427,0-8.015,3.589-8.015,8.015v40.077c0,4.427,3.589,8.015,8.015,8.015
	h304.588c4.427,0,8.015-3.589,8.015-8.015v-40.077C496.464,98.784,492.876,95.195,488.449,95.195z"/>
<path style="fill:#E4E2DE;" d="M199.892,143.288v-40.077c0-4.427,3.589-8.015,8.015-8.015h-24.046c-4.427,0-8.015,3.589-8.015,8.015
	v40.077c0,4.427,3.589,8.015,8.015,8.015h24.046C203.481,151.304,199.892,147.715,199.892,143.288z"/>
<path style="fill:#FC8626;" d="M264.016,263.52H103.706c-48.617,0-88.17,39.553-88.17,88.17v88.17
	c0,39.778,32.361,72.139,72.139,72.139h192.371c39.778,0,72.139-32.361,72.139-72.139v-88.17
	C352.186,303.074,312.634,263.52,264.016,263.52z"/>
<path style="fill:#F27611;" d="M39.583,439.86v-88.17c0-48.617,39.553-88.17,88.17-88.17h-24.046
	c-48.617,0-88.17,39.553-88.17,88.17v88.17c0,39.778,32.361,72.139,72.139,72.139h24.046C71.944,512,39.583,479.639,39.583,439.86z"
	/>
<rect x="15.536" y="375.735" style="fill:#9FD444;" width="336.65" height="32.062"/>
<rect x="15.536" y="375.735" style="fill:#87BD31;" width="24.046" height="32.062"/>
<rect x="15.536" y="407.797" style="fill:#B70000;" width="336.65" height="32.062"/>
<rect x="15.536" y="407.797" style="fill:#7F0000;" width="24.046" height="32.062"/>
<path style="fill:#FFD761;" d="M320.124,375.737l-58.133,65.399c-3.188,3.587-8.793,3.587-11.982,0l-58.133-65.399H320.124z"/>
<polygon style="fill:#FFCB2E;" points="320.124,375.737 191.877,375.737 206.572,392.269 305.43,392.269 "/>
<path style="fill:#FF524A;" d="M63.629,375.737v72.139c0,8.853,7.177,16.031,16.031,16.031s16.031-7.178,16.031-16.031v-16.031
	c0,8.853,7.177,16.031,16.031,16.031s16.031-7.178,16.031-16.031v16.031c0,8.853,7.177,16.031,16.031,16.031
	c8.854,0,16.031-7.178,16.031-16.031v-72.139H63.629z"/>
<rect x="63.633" y="375.735" style="fill:#FF402A;" width="96.186" height="16.031"/>
<g>
	<path style="fill:#FFA85C;" d="M184.863,327.644h-1.002c-4.427,0-8.015-3.589-8.015-8.015s3.589-8.015,8.015-8.015h1.002
		c4.427,0,8.015,3.589,8.015,8.015S189.291,327.644,184.863,327.644z"/>
	<path style="fill:#FFA85C;" d="M232.956,327.644h-1.002c-4.427,0-8.015-3.589-8.015-8.015s3.589-8.015,8.015-8.015h1.002
		c4.427,0,8.015,3.589,8.015,8.015S237.383,327.644,232.956,327.644z"/>
	<path style="fill:#FFA85C;" d="M136.77,327.644h-1.002c-4.427,0-8.015-3.589-8.015-8.015s3.589-8.015,8.015-8.015h1.002
		c4.427,0,8.015,3.589,8.015,8.015S141.198,327.644,136.77,327.644z"/>
	<path style="fill:#FFA85C;" d="M208.909,303.598h-1.002c-4.427,0-8.015-3.589-8.015-8.015s3.589-8.015,8.015-8.015h1.002
		c4.427,0,8.015,3.589,8.015,8.015S213.337,303.598,208.909,303.598z"/>
	<path style="fill:#FFA85C;" d="M159.815,303.598h-1.002c-4.427,0-8.015-3.589-8.015-8.015s3.589-8.015,8.015-8.015h1.002
		c4.427,0,8.015,3.589,8.015,8.015S164.242,303.598,159.815,303.598z"/>
</g>
<g>
</g>
<g>
</g>
<g>
</g>
<g>
</g>
<g>
</g>
<g>
</g>
<g>
</g>
<g>
</g>
<g>
</g>
<g>
</g>
<g>
</g>
<g>
</g>
<g>
</g>
<g>
</g>
<g>
</g>
</svg>
